<mxfile host="65bd71144e">
    <diagram id="TJX3ZT3p85OaiZP5J0TN" name="home">
        <mxGraphModel dx="1111" dy="332" grid="1" gridSize="10" guides="1" tooltips="1" connect="1" arrows="1" fold="1" page="1" pageScale="1" pageWidth="850" pageHeight="1100" math="0" shadow="0">
            <root>
                <mxCell id="0"/>
                <mxCell id="1" parent="0"/>
                <mxCell id="2" value="Home Page" style="swimlane;whiteSpace=wrap;html=1;sketch=1;hachureGap=4;jiggle=2;curveFitting=1;fontFamily=Architects Daughter;fontSource=https%3A%2F%2Ffonts.googleapis.com%2Fcss%3Ffamily%3DArchitects%2BDaughter;fontSize=20;" parent="1" vertex="1">
                    <mxGeometry width="850" height="1050" as="geometry"/>
                </mxCell>
                <mxCell id="3" value="" style="rounded=0;whiteSpace=wrap;html=1;sketch=1;hachureGap=4;jiggle=2;curveFitting=1;fontFamily=Architects Daughter;fontSource=https%3A%2F%2Ffonts.googleapis.com%2Fcss%3Ffamily%3DArchitects%2BDaughter;fontSize=20;" parent="2" vertex="1">
                    <mxGeometry x="79" y="260" width="690" height="360" as="geometry"/>
                </mxCell>
                <mxCell id="4" value="" style="rounded=0;whiteSpace=wrap;html=1;sketch=1;hachureGap=4;jiggle=2;curveFitting=1;fontFamily=Architects Daughter;fontSource=https%3A%2F%2Ffonts.googleapis.com%2Fcss%3Ffamily%3DArchitects%2BDaughter;fontSize=20;" parent="2" vertex="1">
                    <mxGeometry x="139" y="240" width="570" height="400" as="geometry"/>
                </mxCell>
                <mxCell id="6" value="" style="shape=corner;whiteSpace=wrap;html=1;sketch=1;hachureGap=4;jiggle=2;curveFitting=1;fontFamily=Architects Daughter;fontSource=https%3A%2F%2Ffonts.googleapis.com%2Fcss%3Ffamily%3DArchitects%2BDaughter;fontSize=20;dx=8;dy=8;rotation=-50;" parent="2" vertex="1">
                    <mxGeometry x="27.99999999999998" y="426.23" width="28.18" height="27.53" as="geometry"/>
                </mxCell>
                <mxCell id="7" value="" style="shape=corner;whiteSpace=wrap;html=1;sketch=1;hachureGap=4;jiggle=2;curveFitting=1;fontFamily=Architects Daughter;fontSource=https%3A%2F%2Ffonts.googleapis.com%2Fcss%3Ffamily%3DArchitects%2BDaughter;fontSize=20;dx=8;dy=8;rotation=135;" parent="2" vertex="1">
                    <mxGeometry x="793" y="426.23" width="28.18" height="27.53" as="geometry"/>
                </mxCell>
                <mxCell id="8" value="&lt;h1&gt;Heading&lt;/h1&gt;&lt;p&gt;Lorem ipsum dolor sit amet, consectetur adipisicing elit, sed do eiusmod tempor incididunt ut labore et dolore magna aliqua.&lt;/p&gt;" style="text;html=1;strokeColor=none;fillColor=none;spacing=5;spacingTop=-20;whiteSpace=wrap;overflow=hidden;rounded=0;sketch=1;hachureGap=4;jiggle=2;curveFitting=1;fontFamily=Architects Daughter;fontSource=https%3A%2F%2Ffonts.googleapis.com%2Fcss%3Ffamily%3DArchitects%2BDaughter;fontSize=20;align=center;" parent="2" vertex="1">
                    <mxGeometry x="210" y="50" width="460" height="160" as="geometry"/>
                </mxCell>
                <mxCell id="12" value="Lorem ipsum dolor sit amet, consectetur adipiscing elit. Quisque nec est id massa posuere accumsan. Nam luctus nisi nec est pharetra, sed vehicula est congue. Vivamus eu purus eget mi vulputate efficitur. Integer interdum elit sit amet tortor volutpat, ac volutpat est facilisis. Aenean viverra sem at orci venenatis, ut fermentum ligula molestie. Praesent ac ex at orci tempor ultrices sed id velit. Nulla facilisi. Suspendisse vehicula ligula sed cursus maximus. Ut nec arcu dolor. Sed ut odio id enim consectetur pellentesque." style="text;strokeColor=none;fillColor=none;align=left;verticalAlign=middle;spacingLeft=4;spacingRight=4;overflow=hidden;points=[[0,0.5],[1,0.5]];portConstraint=eastwest;rotatable=0;whiteSpace=wrap;html=1;fontSize=16;sketch=1;hachureGap=4;jiggle=2;curveFitting=1;fontFamily=Architects Daughter;fontSource=https%3A%2F%2Ffonts.googleapis.com%2Fcss%3Ffamily%3DArchitects%2BDaughter;" parent="2" vertex="1">
                    <mxGeometry x="40" y="700" width="770" height="130" as="geometry"/>
                </mxCell>
                <mxCell id="13" value="&lt;span style=&quot;white-space: pre;&quot;&gt;&#9;&lt;/span&gt;&lt;span style=&quot;white-space: pre;&quot;&gt;&#9;&lt;/span&gt;Lorem ipsum dolor sit amet, consectetur adipiscing elit. Quisque nec est id massa posuere accumsan. Nam luctus nisi nec est pharetra, sed vehicula est congue. Vivamus eu purus eget mi vulputate efficitur. Integer interdum elit sit amet tortor volutpat, ac volutpat est facilisis. Aenean viverra sem at orci venenatis, ut fermentum ligula molestie. Praesent ac ex at orci tempor ultrices sed id velit. Nulla facilisi. Suspendisse vehicula ligula sed cursus maximus. Ut nec arcu dolor. Sed ut odio id enim consectetur pellentesque." style="text;strokeColor=none;fillColor=none;align=left;verticalAlign=middle;spacingLeft=4;spacingRight=4;overflow=hidden;points=[[0,0.5],[1,0.5]];portConstraint=eastwest;rotatable=0;whiteSpace=wrap;html=1;fontSize=16;sketch=1;hachureGap=4;jiggle=2;curveFitting=1;fontFamily=Architects Daughter;fontSource=https%3A%2F%2Ffonts.googleapis.com%2Fcss%3Ffamily%3DArchitects%2BDaughter;" parent="2" vertex="1">
                    <mxGeometry x="40" y="840" width="770" height="130" as="geometry"/>
                </mxCell>
            </root>
        </mxGraphModel>
    </diagram>
    <diagram id="SYhMbiW6rPOVKV1-QUtG" name="menu">
        <mxGraphModel dx="1111" dy="332" grid="1" gridSize="10" guides="1" tooltips="1" connect="1" arrows="1" fold="1" page="1" pageScale="1" pageWidth="850" pageHeight="1100" math="0" shadow="0">
            <root>
                <mxCell id="0"/>
                <mxCell id="1" parent="0"/>
                <mxCell id="maoXG7olV6y6_MJarEYi-1" value="Menu Page" style="swimlane;whiteSpace=wrap;html=1;sketch=1;hachureGap=4;jiggle=2;curveFitting=1;fontFamily=Architects Daughter;fontSource=https%3A%2F%2Ffonts.googleapis.com%2Fcss%3Ffamily%3DArchitects%2BDaughter;fontSize=20;" parent="1" vertex="1">
                    <mxGeometry width="850" height="730" as="geometry"/>
                </mxCell>
                <mxCell id="maoXG7olV6y6_MJarEYi-2" value="Week 1 .." style="rounded=1;whiteSpace=wrap;html=1;sketch=1;hachureGap=4;jiggle=2;curveFitting=1;fontFamily=Architects Daughter;fontSource=https%3A%2F%2Ffonts.googleapis.com%2Fcss%3Ffamily%3DArchitects%2BDaughter;fontSize=20;" parent="maoXG7olV6y6_MJarEYi-1" vertex="1">
                    <mxGeometry x="30" y="80" width="90" height="30" as="geometry"/>
                </mxCell>
                <mxCell id="maoXG7olV6y6_MJarEYi-3" value="" style="shape=flexArrow;endArrow=classic;html=1;sketch=1;hachureGap=4;jiggle=2;curveFitting=1;fontFamily=Architects Daughter;fontSource=https%3A%2F%2Ffonts.googleapis.com%2Fcss%3Ffamily%3DArchitects%2BDaughter;fontSize=16;" parent="maoXG7olV6y6_MJarEYi-1" edge="1">
                    <mxGeometry width="50" height="50" relative="1" as="geometry">
                        <mxPoint x="120" y="80" as="sourcePoint"/>
                        <mxPoint x="120" y="120" as="targetPoint"/>
                    </mxGeometry>
                </mxCell>
                <mxCell id="maoXG7olV6y6_MJarEYi-4" value="Week 1" style="shape=table;childLayout=tableLayout;startSize=40;collapsible=0;recursiveResize=0;expand=0;fontStyle=1;sketch=1;hachureGap=4;jiggle=2;curveFitting=1;fontFamily=Architects Daughter;fontSource=https%3A%2F%2Ffonts.googleapis.com%2Fcss%3Ffamily%3DArchitects%2BDaughter;fontSize=20;" parent="1" vertex="1">
                    <mxGeometry x="40" y="160" width="740" height="520" as="geometry"/>
                </mxCell>
                <mxCell id="maoXG7olV6y6_MJarEYi-5" value="Breakfast" style="shape=tableRow;horizontal=0;startSize=40;swimlaneHead=0;swimlaneBody=0;top=0;left=0;bottom=0;right=0;dropTarget=0;fillColor=none;collapsible=0;recursiveResize=0;expand=0;fontStyle=1;sketch=1;hachureGap=4;jiggle=2;curveFitting=1;fontFamily=Architects Daughter;fontSource=https%3A%2F%2Ffonts.googleapis.com%2Fcss%3Ffamily%3DArchitects%2BDaughter;fontSize=20;" parent="maoXG7olV6y6_MJarEYi-4" vertex="1">
                    <mxGeometry y="40" width="740" height="120" as="geometry"/>
                </mxCell>
                <mxCell id="maoXG7olV6y6_MJarEYi-6" value="Mon" style="swimlane;swimlaneHead=0;swimlaneBody=0;fontStyle=0;connectable=0;fillColor=none;startSize=40;collapsible=0;recursiveResize=0;expand=0;fontStyle=1;sketch=1;hachureGap=4;jiggle=2;curveFitting=1;fontFamily=Architects Daughter;fontSource=https%3A%2F%2Ffonts.googleapis.com%2Fcss%3Ffamily%3DArchitects%2BDaughter;fontSize=20;" parent="maoXG7olV6y6_MJarEYi-5" vertex="1">
                    <mxGeometry x="40" width="233" height="120" as="geometry">
                        <mxRectangle width="233" height="120" as="alternateBounds"/>
                    </mxGeometry>
                </mxCell>
                <mxCell id="maoXG7olV6y6_MJarEYi-7" value="Tue" style="swimlane;swimlaneHead=0;swimlaneBody=0;fontStyle=0;connectable=0;fillColor=none;startSize=40;collapsible=0;recursiveResize=0;expand=0;fontStyle=1;sketch=1;hachureGap=4;jiggle=2;curveFitting=1;fontFamily=Architects Daughter;fontSource=https%3A%2F%2Ffonts.googleapis.com%2Fcss%3Ffamily%3DArchitects%2BDaughter;fontSize=20;" parent="maoXG7olV6y6_MJarEYi-5" vertex="1">
                    <mxGeometry x="273" width="234" height="120" as="geometry">
                        <mxRectangle width="234" height="120" as="alternateBounds"/>
                    </mxGeometry>
                </mxCell>
                <mxCell id="maoXG7olV6y6_MJarEYi-8" value="Wed" style="swimlane;swimlaneHead=0;swimlaneBody=0;fontStyle=0;connectable=0;fillColor=none;startSize=40;collapsible=0;recursiveResize=0;expand=0;fontStyle=1;sketch=1;hachureGap=4;jiggle=2;curveFitting=1;fontFamily=Architects Daughter;fontSource=https%3A%2F%2Ffonts.googleapis.com%2Fcss%3Ffamily%3DArchitects%2BDaughter;fontSize=20;" parent="maoXG7olV6y6_MJarEYi-5" vertex="1">
                    <mxGeometry x="507" width="233" height="120" as="geometry">
                        <mxRectangle width="233" height="120" as="alternateBounds"/>
                    </mxGeometry>
                </mxCell>
                <mxCell id="maoXG7olV6y6_MJarEYi-9" value="Lunch" style="shape=tableRow;horizontal=0;startSize=40;swimlaneHead=0;swimlaneBody=0;top=0;left=0;bottom=0;right=0;dropTarget=0;fillColor=none;collapsible=0;recursiveResize=0;expand=0;fontStyle=1;sketch=1;hachureGap=4;jiggle=2;curveFitting=1;fontFamily=Architects Daughter;fontSource=https%3A%2F%2Ffonts.googleapis.com%2Fcss%3Ffamily%3DArchitects%2BDaughter;fontSize=20;" parent="maoXG7olV6y6_MJarEYi-4" vertex="1">
                    <mxGeometry y="160" width="740" height="120" as="geometry"/>
                </mxCell>
                <mxCell id="maoXG7olV6y6_MJarEYi-10" value="" style="swimlane;swimlaneHead=0;swimlaneBody=0;fontStyle=0;connectable=0;fillColor=none;startSize=0;collapsible=0;recursiveResize=0;expand=0;fontStyle=1;sketch=1;hachureGap=4;jiggle=2;curveFitting=1;fontFamily=Architects Daughter;fontSource=https%3A%2F%2Ffonts.googleapis.com%2Fcss%3Ffamily%3DArchitects%2BDaughter;fontSize=20;" parent="maoXG7olV6y6_MJarEYi-9" vertex="1">
                    <mxGeometry x="40" width="233" height="120" as="geometry">
                        <mxRectangle width="233" height="120" as="alternateBounds"/>
                    </mxGeometry>
                </mxCell>
                <mxCell id="maoXG7olV6y6_MJarEYi-11" value="" style="swimlane;swimlaneHead=0;swimlaneBody=0;fontStyle=0;connectable=0;fillColor=none;startSize=0;collapsible=0;recursiveResize=0;expand=0;fontStyle=1;sketch=1;hachureGap=4;jiggle=2;curveFitting=1;fontFamily=Architects Daughter;fontSource=https%3A%2F%2Ffonts.googleapis.com%2Fcss%3Ffamily%3DArchitects%2BDaughter;fontSize=20;" parent="maoXG7olV6y6_MJarEYi-9" vertex="1">
                    <mxGeometry x="273" width="234" height="120" as="geometry">
                        <mxRectangle width="234" height="120" as="alternateBounds"/>
                    </mxGeometry>
                </mxCell>
                <mxCell id="maoXG7olV6y6_MJarEYi-12" value="" style="swimlane;swimlaneHead=0;swimlaneBody=0;fontStyle=0;connectable=0;fillColor=none;startSize=0;collapsible=0;recursiveResize=0;expand=0;fontStyle=1;sketch=1;hachureGap=4;jiggle=2;curveFitting=1;fontFamily=Architects Daughter;fontSource=https%3A%2F%2Ffonts.googleapis.com%2Fcss%3Ffamily%3DArchitects%2BDaughter;fontSize=20;" parent="maoXG7olV6y6_MJarEYi-9" vertex="1">
                    <mxGeometry x="507" width="233" height="120" as="geometry">
                        <mxRectangle width="233" height="120" as="alternateBounds"/>
                    </mxGeometry>
                </mxCell>
                <mxCell id="maoXG7olV6y6_MJarEYi-13" value="Snaks" style="shape=tableRow;horizontal=0;startSize=40;swimlaneHead=0;swimlaneBody=0;top=0;left=0;bottom=0;right=0;dropTarget=0;fillColor=none;collapsible=0;recursiveResize=0;expand=0;fontStyle=1;sketch=1;hachureGap=4;jiggle=2;curveFitting=1;fontFamily=Architects Daughter;fontSource=https%3A%2F%2Ffonts.googleapis.com%2Fcss%3Ffamily%3DArchitects%2BDaughter;fontSize=20;" parent="maoXG7olV6y6_MJarEYi-4" vertex="1">
                    <mxGeometry y="280" width="740" height="120" as="geometry"/>
                </mxCell>
                <mxCell id="maoXG7olV6y6_MJarEYi-14" value="" style="swimlane;swimlaneHead=0;swimlaneBody=0;fontStyle=0;connectable=0;fillColor=none;startSize=0;collapsible=0;recursiveResize=0;expand=0;fontStyle=1;sketch=1;hachureGap=4;jiggle=2;curveFitting=1;fontFamily=Architects Daughter;fontSource=https%3A%2F%2Ffonts.googleapis.com%2Fcss%3Ffamily%3DArchitects%2BDaughter;fontSize=20;" parent="maoXG7olV6y6_MJarEYi-13" vertex="1">
                    <mxGeometry x="40" width="233" height="120" as="geometry">
                        <mxRectangle width="233" height="120" as="alternateBounds"/>
                    </mxGeometry>
                </mxCell>
                <mxCell id="maoXG7olV6y6_MJarEYi-15" value="" style="swimlane;swimlaneHead=0;swimlaneBody=0;fontStyle=0;connectable=0;fillColor=none;startSize=0;collapsible=0;recursiveResize=0;expand=0;fontStyle=1;sketch=1;hachureGap=4;jiggle=2;curveFitting=1;fontFamily=Architects Daughter;fontSource=https%3A%2F%2Ffonts.googleapis.com%2Fcss%3Ffamily%3DArchitects%2BDaughter;fontSize=20;" parent="maoXG7olV6y6_MJarEYi-13" vertex="1">
                    <mxGeometry x="273" width="234" height="120" as="geometry">
                        <mxRectangle width="234" height="120" as="alternateBounds"/>
                    </mxGeometry>
                </mxCell>
                <mxCell id="maoXG7olV6y6_MJarEYi-16" value="" style="swimlane;swimlaneHead=0;swimlaneBody=0;fontStyle=0;connectable=0;fillColor=none;startSize=0;collapsible=0;recursiveResize=0;expand=0;fontStyle=1;sketch=1;hachureGap=4;jiggle=2;curveFitting=1;fontFamily=Architects Daughter;fontSource=https%3A%2F%2Ffonts.googleapis.com%2Fcss%3Ffamily%3DArchitects%2BDaughter;fontSize=20;" parent="maoXG7olV6y6_MJarEYi-13" vertex="1">
                    <mxGeometry x="507" width="233" height="120" as="geometry">
                        <mxRectangle width="233" height="120" as="alternateBounds"/>
                    </mxGeometry>
                </mxCell>
                <mxCell id="maoXG7olV6y6_MJarEYi-17" value="Dinner" style="shape=tableRow;horizontal=0;startSize=40;swimlaneHead=0;swimlaneBody=0;top=0;left=0;bottom=0;right=0;dropTarget=0;fillColor=none;collapsible=0;recursiveResize=0;expand=0;fontStyle=1;sketch=1;hachureGap=4;jiggle=2;curveFitting=1;fontFamily=Architects Daughter;fontSource=https%3A%2F%2Ffonts.googleapis.com%2Fcss%3Ffamily%3DArchitects%2BDaughter;fontSize=20;" parent="maoXG7olV6y6_MJarEYi-4" vertex="1">
                    <mxGeometry y="400" width="740" height="120" as="geometry"/>
                </mxCell>
                <mxCell id="maoXG7olV6y6_MJarEYi-18" value="" style="swimlane;swimlaneHead=0;swimlaneBody=0;fontStyle=0;connectable=0;fillColor=none;startSize=0;collapsible=0;recursiveResize=0;expand=0;fontStyle=1;sketch=1;hachureGap=4;jiggle=2;curveFitting=1;fontFamily=Architects Daughter;fontSource=https%3A%2F%2Ffonts.googleapis.com%2Fcss%3Ffamily%3DArchitects%2BDaughter;fontSize=20;" parent="maoXG7olV6y6_MJarEYi-17" vertex="1">
                    <mxGeometry x="40" width="233" height="120" as="geometry">
                        <mxRectangle width="233" height="120" as="alternateBounds"/>
                    </mxGeometry>
                </mxCell>
                <mxCell id="maoXG7olV6y6_MJarEYi-19" value="" style="swimlane;swimlaneHead=0;swimlaneBody=0;fontStyle=0;connectable=0;fillColor=none;startSize=0;collapsible=0;recursiveResize=0;expand=0;fontStyle=1;sketch=1;hachureGap=4;jiggle=2;curveFitting=1;fontFamily=Architects Daughter;fontSource=https%3A%2F%2Ffonts.googleapis.com%2Fcss%3Ffamily%3DArchitects%2BDaughter;fontSize=20;" parent="maoXG7olV6y6_MJarEYi-17" vertex="1">
                    <mxGeometry x="273" width="234" height="120" as="geometry">
                        <mxRectangle width="234" height="120" as="alternateBounds"/>
                    </mxGeometry>
                </mxCell>
                <mxCell id="maoXG7olV6y6_MJarEYi-20" value="" style="swimlane;swimlaneHead=0;swimlaneBody=0;fontStyle=0;connectable=0;fillColor=none;startSize=0;collapsible=0;recursiveResize=0;expand=0;fontStyle=1;sketch=1;hachureGap=4;jiggle=2;curveFitting=1;fontFamily=Architects Daughter;fontSource=https%3A%2F%2Ffonts.googleapis.com%2Fcss%3Ffamily%3DArchitects%2BDaughter;fontSize=20;" parent="maoXG7olV6y6_MJarEYi-17" vertex="1">
                    <mxGeometry x="507" width="233" height="120" as="geometry">
                        <mxRectangle width="233" height="120" as="alternateBounds"/>
                    </mxGeometry>
                </mxCell>
            </root>
        </mxGraphModel>
    </diagram>
    <diagram id="nH3wMrpbLh-kvqj3_I5e" name="contact">
        <mxGraphModel dx="432" dy="446" grid="1" gridSize="10" guides="1" tooltips="1" connect="1" arrows="1" fold="1" page="1" pageScale="1" pageWidth="850" pageHeight="1100" math="0" shadow="0">
            <root>
                <mxCell id="0"/>
                <mxCell id="1" parent="0"/>
                <mxCell id="zpStlY2OtNtRX8FAR3gF-1" value="Contact Page" style="swimlane;whiteSpace=wrap;html=1;sketch=1;hachureGap=4;jiggle=2;curveFitting=1;fontFamily=Architects Daughter;fontSource=https%3A%2F%2Ffonts.googleapis.com%2Fcss%3Ffamily%3DArchitects%2BDaughter;fontSize=20;" parent="1" vertex="1">
                    <mxGeometry width="850" height="510" as="geometry"/>
                </mxCell>
                <mxCell id="zpStlY2OtNtRX8FAR3gF-2" value="&lt;pre&gt;&lt;font style=&quot;font-size: 14px;&quot;&gt;First Name&lt;/font&gt;&lt;/pre&gt;" style="rounded=1;whiteSpace=wrap;html=1;sketch=1;hachureGap=4;jiggle=2;curveFitting=1;fontFamily=Architects Daughter;fontSource=https%3A%2F%2Ffonts.googleapis.com%2Fcss%3Ffamily%3DArchitects%2BDaughter;fontSize=20;" parent="zpStlY2OtNtRX8FAR3gF-1" vertex="1">
                    <mxGeometry x="80" y="220" width="140" height="50" as="geometry"/>
                </mxCell>
                <mxCell id="zpStlY2OtNtRX8FAR3gF-3" value="&lt;pre&gt;&lt;font style=&quot;font-size: 14px;&quot;&gt;Last Name&lt;/font&gt;&lt;/pre&gt;" style="rounded=1;whiteSpace=wrap;html=1;sketch=1;hachureGap=4;jiggle=2;curveFitting=1;fontFamily=Architects Daughter;fontSource=https%3A%2F%2Ffonts.googleapis.com%2Fcss%3Ffamily%3DArchitects%2BDaughter;fontSize=20;" parent="zpStlY2OtNtRX8FAR3gF-1" vertex="1">
                    <mxGeometry x="260" y="220" width="140" height="50" as="geometry"/>
                </mxCell>
                <mxCell id="zpStlY2OtNtRX8FAR3gF-4" value="&lt;pre&gt;&lt;font style=&quot;font-size: 14px;&quot;&gt;example@example.com&lt;/font&gt;&lt;/pre&gt;" style="rounded=1;whiteSpace=wrap;html=1;sketch=1;hachureGap=4;jiggle=2;curveFitting=1;fontFamily=Architects Daughter;fontSource=https%3A%2F%2Ffonts.googleapis.com%2Fcss%3Ffamily%3DArchitects%2BDaughter;fontSize=20;" parent="zpStlY2OtNtRX8FAR3gF-1" vertex="1">
                    <mxGeometry x="80" y="330" width="320" height="50" as="geometry"/>
                </mxCell>
                <mxCell id="zpStlY2OtNtRX8FAR3gF-5" value="&lt;pre&gt;&lt;font style=&quot;font-size: 14px;&quot;&gt;food/menu/collab/etc...&lt;/font&gt;&lt;/pre&gt;" style="rounded=1;whiteSpace=wrap;html=1;sketch=1;hachureGap=4;jiggle=2;curveFitting=1;fontFamily=Architects Daughter;fontSource=https%3A%2F%2Ffonts.googleapis.com%2Fcss%3Ffamily%3DArchitects%2BDaughter;fontSize=20;" parent="zpStlY2OtNtRX8FAR3gF-1" vertex="1">
                    <mxGeometry x="80" y="110" width="320" height="50" as="geometry"/>
                </mxCell>
                <mxCell id="zpStlY2OtNtRX8FAR3gF-6" value="" style="shape=flexArrow;endArrow=classic;html=1;sketch=1;hachureGap=4;jiggle=2;curveFitting=1;fontFamily=Architects Daughter;fontSource=https%3A%2F%2Ffonts.googleapis.com%2Fcss%3Ffamily%3DArchitects%2BDaughter;fontSize=16;entryX=1;entryY=1;entryDx=0;entryDy=0;exitX=1;exitY=0;exitDx=0;exitDy=0;" parent="zpStlY2OtNtRX8FAR3gF-1" edge="1">
                    <mxGeometry width="50" height="50" relative="1" as="geometry">
                        <mxPoint x="387" y="110" as="sourcePoint"/>
                        <mxPoint x="387" y="160" as="targetPoint"/>
                    </mxGeometry>
                </mxCell>
                <mxCell id="zpStlY2OtNtRX8FAR3gF-7" value="&lt;pre&gt;&lt;font style=&quot;font-size: 14px;&quot;&gt;description&lt;/font&gt;&lt;/pre&gt;" style="rounded=0;whiteSpace=wrap;html=1;sketch=1;hachureGap=4;jiggle=2;curveFitting=1;fontFamily=Architects Daughter;fontSource=https%3A%2F%2Ffonts.googleapis.com%2Fcss%3Ffamily%3DArchitects%2BDaughter;fontSize=20;" parent="zpStlY2OtNtRX8FAR3gF-1" vertex="1">
                    <mxGeometry x="480" y="110" width="300" height="270" as="geometry"/>
                </mxCell>
                <mxCell id="zpStlY2OtNtRX8FAR3gF-8" value="NAME" style="text;html=1;strokeColor=none;fillColor=none;align=center;verticalAlign=middle;whiteSpace=wrap;rounded=0;sketch=1;hachureGap=4;jiggle=2;curveFitting=1;fontFamily=Architects Daughter;fontSource=https%3A%2F%2Ffonts.googleapis.com%2Fcss%3Ffamily%3DArchitects%2BDaughter;fontSize=20;" parent="zpStlY2OtNtRX8FAR3gF-1" vertex="1">
                    <mxGeometry x="80" y="180" width="60" height="30" as="geometry"/>
                </mxCell>
                <mxCell id="zpStlY2OtNtRX8FAR3gF-9" value="MESSAGE" style="text;html=1;strokeColor=none;fillColor=none;align=center;verticalAlign=middle;whiteSpace=wrap;rounded=0;sketch=1;hachureGap=4;jiggle=2;curveFitting=1;fontFamily=Architects Daughter;fontSource=https%3A%2F%2Ffonts.googleapis.com%2Fcss%3Ffamily%3DArchitects%2BDaughter;fontSize=20;" parent="zpStlY2OtNtRX8FAR3gF-1" vertex="1">
                    <mxGeometry x="480" y="70" width="90" height="30" as="geometry"/>
                </mxCell>
                <mxCell id="zpStlY2OtNtRX8FAR3gF-10" value="EMAIL" style="text;html=1;strokeColor=none;fillColor=none;align=center;verticalAlign=middle;whiteSpace=wrap;rounded=0;sketch=1;hachureGap=4;jiggle=2;curveFitting=1;fontFamily=Architects Daughter;fontSource=https%3A%2F%2Ffonts.googleapis.com%2Fcss%3Ffamily%3DArchitects%2BDaughter;fontSize=20;" parent="zpStlY2OtNtRX8FAR3gF-1" vertex="1">
                    <mxGeometry x="80" y="290" width="60" height="30" as="geometry"/>
                </mxCell>
                <mxCell id="zpStlY2OtNtRX8FAR3gF-11" value="REGARDING?" style="text;html=1;strokeColor=none;fillColor=none;align=center;verticalAlign=middle;whiteSpace=wrap;rounded=0;sketch=1;hachureGap=4;jiggle=2;curveFitting=1;fontFamily=Architects Daughter;fontSource=https%3A%2F%2Ffonts.googleapis.com%2Fcss%3Ffamily%3DArchitects%2BDaughter;fontSize=20;" parent="zpStlY2OtNtRX8FAR3gF-1" vertex="1">
                    <mxGeometry x="80" y="70" width="120" height="30" as="geometry"/>
                </mxCell>
                <mxCell id="zpStlY2OtNtRX8FAR3gF-12" value="&lt;font style=&quot;font-size: 20px;&quot;&gt;SUBMIT&lt;/font&gt;" style="rounded=1;whiteSpace=wrap;html=1;sketch=1;hachureGap=4;jiggle=2;curveFitting=1;fontFamily=Architects Daughter;fontSource=https%3A%2F%2Ffonts.googleapis.com%2Fcss%3Ffamily%3DArchitects%2BDaughter;fontSize=14;" parent="zpStlY2OtNtRX8FAR3gF-1" vertex="1">
                    <mxGeometry x="335" y="430" width="180" height="40" as="geometry"/>
                </mxCell>
            </root>
        </mxGraphModel>
    </diagram>
</mxfile>